<?xml version="1.0" encoding="UTF-8" standalone="no"?>
<!DOCTYPE svg PUBLIC "-//W3C//DTD SVG 1.1//EN"
 "http://www.w3.org/Graphics/SVG/1.1/DTD/svg11.dtd">
<!-- Generated by graphviz version 2.50.0 (0)
 -->
<!-- Pages: 1 -->
<svg width="642pt" height="943pt"
 viewBox="0.00 0.00 642.00 943.06" xmlns="http://www.w3.org/2000/svg" xmlns:xlink="http://www.w3.org/1999/xlink">
<g id="graph0" class="graph" transform="scale(1 1) rotate(0) translate(4 939.06)">
<polygon fill="white" stroke="transparent" points="-4,4 -4,-939.06 638,-939.06 638,4 -4,4"/>
<!-- 0 -->
<g id="node1" class="node">
<title>0</title>
<ellipse fill="darkolivegreen" stroke="darkolivegreen" cx="289" cy="-901.12" rx="57.97" ry="33.88"/>
<text text-anchor="middle" x="289" y="-906.72" font-family="Times,serif" font-size="18.00">State 0</text>
<text text-anchor="middle" x="289" y="-886.72" font-family="Times,serif" font-size="18.00">init</text>
</g>
<!-- 0&#45;&gt;0 -->
<g id="edge1" class="edge">
<title>0&#45;&gt;0</title>
<path fill="none" stroke="black" d="M343.98,-912.06C356.13,-911.04 364.98,-907.39 364.98,-901.12 364.98,-896.81 360.8,-893.73 354.24,-891.9"/>
<polygon fill="black" stroke="black" points="354.43,-888.38 343.98,-890.17 353.26,-895.29 354.43,-888.38"/>
<text text-anchor="middle" x="379.48" y="-896.72" font-family="Times,serif" font-size="18.00">0.3</text>
</g>
<!-- 1 -->
<g id="node2" class="node">
<title>1</title>
<ellipse fill="#76ee00" stroke="#76ee00" cx="289" cy="-777.23" rx="57.97" ry="33.88"/>
<text text-anchor="middle" x="289" y="-782.83" font-family="Times,serif" font-size="18.00">State 1</text>
<text text-anchor="middle" x="289" y="-762.83" font-family="Times,serif" font-size="18.00">group1</text>
</g>
<!-- 0&#45;&gt;1 -->
<g id="edge2" class="edge">
<title>0&#45;&gt;1</title>
<path fill="none" stroke="black" d="M289,-867.13C289,-853.04 289,-836.41 289,-821.36"/>
<polygon fill="black" stroke="black" points="292.5,-821.24 289,-811.24 285.5,-821.24 292.5,-821.24"/>
<text text-anchor="middle" x="303.5" y="-834.78" font-family="Times,serif" font-size="18.00">0.7</text>
</g>
<!-- 1&#45;&gt;1 -->
<g id="edge3" class="edge">
<title>1&#45;&gt;1</title>
<path fill="none" stroke="black" d="M343.98,-788.18C356.13,-787.15 364.98,-783.5 364.98,-777.23 364.98,-772.92 360.8,-769.85 354.24,-768.02"/>
<polygon fill="black" stroke="black" points="354.43,-764.5 343.98,-766.29 353.26,-771.4 354.43,-764.5"/>
<text text-anchor="middle" x="379.48" y="-772.83" font-family="Times,serif" font-size="18.00">0.1</text>
</g>
<!-- 3 -->
<g id="node3" class="node">
<title>3</title>
<ellipse fill="#76ee00" stroke="#76ee00" cx="237" cy="-653.35" rx="57.97" ry="33.88"/>
<text text-anchor="middle" x="237" y="-658.95" font-family="Times,serif" font-size="18.00">State 3</text>
<text text-anchor="middle" x="237" y="-638.95" font-family="Times,serif" font-size="18.00">group1</text>
</g>
<!-- 1&#45;&gt;3 -->
<g id="edge4" class="edge">
<title>1&#45;&gt;3</title>
<path fill="none" stroke="black" d="M280.58,-743.52C276.98,-731.3 272.37,-717.44 267,-705.29 265.39,-701.65 263.57,-697.94 261.66,-694.26"/>
<polygon fill="black" stroke="black" points="264.61,-692.36 256.74,-685.27 258.47,-695.72 264.61,-692.36"/>
<text text-anchor="middle" x="289.5" y="-710.89" font-family="Times,serif" font-size="18.00">0.7</text>
</g>
<!-- 5 -->
<g id="node4" class="node">
<title>5</title>
<ellipse fill="#00bfff" stroke="#00bfff" cx="226" cy="-33.94" rx="57.97" ry="33.88"/>
<text text-anchor="middle" x="226" y="-39.54" font-family="Times,serif" font-size="18.00">State 5</text>
<text text-anchor="middle" x="226" y="-19.54" font-family="Times,serif" font-size="18.00">group3</text>
</g>
<!-- 1&#45;&gt;5 -->
<g id="edge5" class="edge">
<title>1&#45;&gt;5</title>
<path fill="none" stroke="black" d="M230.86,-776.43C146.47,-773.3 0,-753.59 0,-654.35 0,-654.35 0,-654.35 0,-156.82 0,-83.89 92.3,-54.4 158.93,-42.61"/>
<polygon fill="black" stroke="black" points="159.68,-46.03 168.97,-40.93 158.53,-39.13 159.68,-46.03"/>
<text text-anchor="middle" x="14.5" y="-401.19" font-family="Times,serif" font-size="18.00">0.1</text>
</g>
<!-- 8 -->
<g id="node5" class="node">
<title>8</title>
<ellipse fill="#104e8b" stroke="#104e8b" cx="331" cy="-157.82" rx="57.97" ry="33.88"/>
<text text-anchor="middle" x="331" y="-163.42" font-family="Times,serif" font-size="18.00">State 8</text>
<text text-anchor="middle" x="331" y="-143.42" font-family="Times,serif" font-size="18.00">target</text>
</g>
<!-- 1&#45;&gt;8 -->
<g id="edge6" class="edge">
<title>1&#45;&gt;8</title>
<path fill="none" stroke="black" d="M344.4,-766.63C435.03,-749.34 605,-709.55 605,-654.35 605,-654.35 605,-654.35 605,-280.71 605,-190.84 480.42,-166.75 399.27,-160.59"/>
<polygon fill="black" stroke="black" points="399.32,-157.08 389.11,-159.89 398.85,-164.07 399.32,-157.08"/>
<text text-anchor="middle" x="619.5" y="-463.13" font-family="Times,serif" font-size="18.00">0.1</text>
</g>
<!-- 3&#45;&gt;1 -->
<g id="edge10" class="edge">
<title>3&#45;&gt;1</title>
<path fill="none" stroke="black" d="M229.66,-687.26C228.4,-699.63 228.87,-713.55 234,-725.29 236.8,-731.7 240.85,-737.67 245.5,-743.09"/>
<polygon fill="black" stroke="black" points="243.24,-745.8 252.67,-750.64 248.32,-740.98 243.24,-745.8"/>
<text text-anchor="middle" x="248.5" y="-710.89" font-family="Times,serif" font-size="18.00">0.2</text>
</g>
<!-- 3&#45;&gt;3 -->
<g id="edge11" class="edge">
<title>3&#45;&gt;3</title>
<path fill="none" stroke="black" d="M291.98,-664.3C304.13,-663.27 312.98,-659.62 312.98,-653.35 312.98,-649.04 308.8,-645.97 302.24,-644.14"/>
<polygon fill="black" stroke="black" points="302.43,-640.62 291.98,-642.41 301.26,-647.52 302.43,-640.62"/>
<text text-anchor="middle" x="327.48" y="-648.95" font-family="Times,serif" font-size="18.00">0.4</text>
</g>
<!-- 4 -->
<g id="node7" class="node">
<title>4</title>
<ellipse fill="#00bfff" stroke="#00bfff" cx="397" cy="-405.59" rx="57.97" ry="33.88"/>
<text text-anchor="middle" x="397" y="-411.19" font-family="Times,serif" font-size="18.00">State 4</text>
<text text-anchor="middle" x="397" y="-391.19" font-family="Times,serif" font-size="18.00">group3</text>
</g>
<!-- 3&#45;&gt;4 -->
<g id="edge12" class="edge">
<title>3&#45;&gt;4</title>
<path fill="none" stroke="black" d="M294.28,-646.63C346.28,-638.06 420.14,-616.69 456,-563.41 480.93,-526.37 454.76,-477.37 429.8,-444.07"/>
<polygon fill="black" stroke="black" points="432.4,-441.72 423.51,-435.96 426.87,-446 432.4,-441.72"/>
<text text-anchor="middle" x="480.5" y="-525.07" font-family="Times,serif" font-size="18.00">0.2</text>
</g>
<!-- 6 -->
<g id="node8" class="node">
<title>6</title>
<ellipse fill="#76ee00" stroke="#76ee00" cx="143" cy="-529.47" rx="57.97" ry="33.88"/>
<text text-anchor="middle" x="143" y="-535.07" font-family="Times,serif" font-size="18.00">State 6</text>
<text text-anchor="middle" x="143" y="-515.07" font-family="Times,serif" font-size="18.00">group1</text>
</g>
<!-- 3&#45;&gt;6 -->
<g id="edge13" class="edge">
<title>3&#45;&gt;6</title>
<path fill="none" stroke="black" d="M185.87,-637.01C168.88,-629.21 151.8,-617.79 142,-601.41 137.02,-593.1 135.2,-583.19 135.06,-573.46"/>
<polygon fill="black" stroke="black" points="138.56,-573.59 135.47,-563.46 131.57,-573.31 138.56,-573.59"/>
<text text-anchor="middle" x="156.5" y="-587.01" font-family="Times,serif" font-size="18.00">0.1</text>
</g>
<!-- 7 -->
<g id="node9" class="node">
<title>7</title>
<ellipse fill="dodgerblue" stroke="dodgerblue" cx="342" cy="-529.47" rx="57.97" ry="33.88"/>
<text text-anchor="middle" x="342" y="-535.07" font-family="Times,serif" font-size="18.00">State 7</text>
<text text-anchor="middle" x="342" y="-515.07" font-family="Times,serif" font-size="18.00">group2</text>
</g>
<!-- 3&#45;&gt;7 -->
<g id="edge14" class="edge">
<title>3&#45;&gt;7</title>
<path fill="none" stroke="black" d="M262.69,-622.54C276.9,-606.04 294.7,-585.37 309.84,-567.81"/>
<polygon fill="black" stroke="black" points="312.7,-569.84 316.58,-559.98 307.4,-565.27 312.7,-569.84"/>
<text text-anchor="middle" x="310.5" y="-587.01" font-family="Times,serif" font-size="18.00">0.1</text>
</g>
<!-- 5&#45;&gt;3 -->
<g id="edge18" class="edge">
<title>5&#45;&gt;3</title>
<path fill="none" stroke="black" d="M173.45,-48.78C123.84,-65.39 57,-98.58 57,-156.82 57,-530.47 57,-530.47 57,-530.47 57,-588.44 121.8,-620.72 173.64,-637.28"/>
<polygon fill="black" stroke="black" points="172.9,-640.71 183.48,-640.28 174.94,-634.01 172.9,-640.71"/>
<text text-anchor="middle" x="71.5" y="-339.25" font-family="Times,serif" font-size="18.00">0.1</text>
</g>
<!-- 5&#45;&gt;5 -->
<g id="edge19" class="edge">
<title>5&#45;&gt;5</title>
<path fill="none" stroke="black" d="M280.98,-44.89C293.13,-43.86 301.98,-40.21 301.98,-33.94 301.98,-29.63 297.8,-26.56 291.24,-24.73"/>
<polygon fill="black" stroke="black" points="291.43,-21.21 280.98,-22.99 290.26,-28.11 291.43,-21.21"/>
<text text-anchor="middle" x="316.48" y="-29.54" font-family="Times,serif" font-size="18.00">0.8</text>
</g>
<!-- 5&#45;&gt;8 -->
<g id="edge20" class="edge">
<title>5&#45;&gt;8</title>
<path fill="none" stroke="black" d="M268.63,-57.19C280.62,-65.01 292.86,-74.68 302,-85.88 308.82,-94.24 314.23,-104.42 318.44,-114.43"/>
<polygon fill="black" stroke="black" points="315.23,-115.85 322.11,-123.91 321.76,-113.33 315.23,-115.85"/>
<text text-anchor="middle" x="329.5" y="-91.48" font-family="Times,serif" font-size="18.00">0.1</text>
</g>
<!-- 8&#45;&gt;5 -->
<g id="edge26" class="edge">
<title>8&#45;&gt;5</title>
<path fill="none" stroke="black" d="M295.35,-130.98C286.19,-123.45 276.75,-114.83 269,-105.88 261.12,-96.79 253.81,-86.08 247.53,-75.77"/>
<polygon fill="black" stroke="black" points="250.38,-73.71 242.29,-66.87 244.34,-77.26 250.38,-73.71"/>
<text text-anchor="middle" x="283.5" y="-91.48" font-family="Times,serif" font-size="18.00">0.9</text>
</g>
<!-- 8&#45;&gt;8 -->
<g id="edge27" class="edge">
<title>8&#45;&gt;8</title>
<path fill="none" stroke="black" d="M385.98,-168.77C398.13,-167.74 406.98,-164.09 406.98,-157.82 406.98,-153.51 402.8,-150.44 396.24,-148.61"/>
<polygon fill="black" stroke="black" points="396.43,-145.09 385.98,-146.88 395.26,-151.99 396.43,-145.09"/>
<text text-anchor="middle" x="421.48" y="-153.42" font-family="Times,serif" font-size="18.00">0.1</text>
</g>
<!-- 2 -->
<g id="node6" class="node">
<title>2</title>
<ellipse fill="dodgerblue" stroke="dodgerblue" cx="261" cy="-281.71" rx="57.97" ry="33.88"/>
<text text-anchor="middle" x="261" y="-287.31" font-family="Times,serif" font-size="18.00">State 2</text>
<text text-anchor="middle" x="261" y="-267.31" font-family="Times,serif" font-size="18.00">group2</text>
</g>
<!-- 2&#45;&gt;1 -->
<g id="edge7" class="edge">
<title>2&#45;&gt;1</title>
<path fill="none" stroke="black" d="M309.62,-300.39C323.31,-305.35 338.23,-310.73 352,-315.65 422.56,-340.84 467.71,-310.5 511,-371.65 560.34,-441.34 535.19,-486.06 499,-563.41 462.4,-641.63 384.67,-708.07 334.74,-745.01"/>
<polygon fill="black" stroke="black" points="332.38,-742.39 326.36,-751.12 336.5,-748.05 332.38,-742.39"/>
<text text-anchor="middle" x="542.5" y="-525.07" font-family="Times,serif" font-size="18.00">0.1</text>
</g>
<!-- 2&#45;&gt;5 -->
<g id="edge8" class="edge">
<title>2&#45;&gt;5</title>
<path fill="none" stroke="black" d="M249.56,-248.18C244.2,-231.52 238.28,-210.79 235,-191.76 228.44,-153.74 226.38,-109.83 225.85,-78.17"/>
<polygon fill="black" stroke="black" points="229.35,-77.88 225.73,-67.93 222.35,-77.97 229.35,-77.88"/>
<text text-anchor="middle" x="249.5" y="-153.42" font-family="Times,serif" font-size="18.00">0.1</text>
</g>
<!-- 2&#45;&gt;8 -->
<g id="edge9" class="edge">
<title>2&#45;&gt;8</title>
<path fill="none" stroke="black" d="M279.03,-249.32C287.84,-233.96 298.56,-215.31 307.96,-198.93"/>
<polygon fill="black" stroke="black" points="311.09,-200.52 313.03,-190.1 305.02,-197.03 311.09,-200.52"/>
<text text-anchor="middle" x="315.5" y="-215.36" font-family="Times,serif" font-size="18.00">0.8</text>
</g>
<!-- 4&#45;&gt;8 -->
<g id="edge17" class="edge">
<title>4&#45;&gt;8</title>
<path fill="none" stroke="black" d="M388.24,-371.95C376.45,-328.07 355.47,-249.96 342.45,-201.47"/>
<polygon fill="black" stroke="black" points="345.77,-200.34 339.8,-191.59 339.01,-202.16 345.77,-200.34"/>
<text text-anchor="middle" x="386.5" y="-277.31" font-family="Times,serif" font-size="18.00">0.2</text>
</g>
<!-- 4&#45;&gt;4 -->
<g id="edge15" class="edge">
<title>4&#45;&gt;4</title>
<path fill="none" stroke="black" d="M451.98,-416.54C464.13,-415.51 472.98,-411.86 472.98,-405.59 472.98,-401.28 468.8,-398.21 462.24,-396.37"/>
<polygon fill="black" stroke="black" points="462.43,-392.86 451.98,-394.64 461.26,-399.76 462.43,-392.86"/>
<text text-anchor="middle" x="487.48" y="-401.19" font-family="Times,serif" font-size="18.00">0.7</text>
</g>
<!-- 4&#45;&gt;7 -->
<g id="edge16" class="edge">
<title>4&#45;&gt;7</title>
<path fill="none" stroke="black" d="M362.36,-433.16C355.4,-440.28 349.01,-448.52 345,-457.53 341.17,-466.13 339.36,-475.91 338.7,-485.41"/>
<polygon fill="black" stroke="black" points="335.2,-485.43 338.4,-495.53 342.2,-485.63 335.2,-485.43"/>
<text text-anchor="middle" x="359.5" y="-463.13" font-family="Times,serif" font-size="18.00">0.1</text>
</g>
<!-- 6&#45;&gt;3 -->
<g id="edge22" class="edge">
<title>6&#45;&gt;3</title>
<path fill="none" stroke="black" d="M164.33,-561.23C173.28,-573.85 183.93,-588.49 194,-601.41 197.42,-605.8 201.08,-610.35 204.76,-614.82"/>
<polygon fill="black" stroke="black" points="202.28,-617.32 211.37,-622.77 207.67,-612.84 202.28,-617.32"/>
<text text-anchor="middle" x="208.5" y="-587.01" font-family="Times,serif" font-size="18.00">0.3</text>
</g>
<!-- 6&#45;&gt;2 -->
<g id="edge21" class="edge">
<title>6&#45;&gt;2</title>
<path fill="none" stroke="black" d="M141.37,-495.3C141.13,-462.15 144.63,-410.63 165,-371.65 176.78,-349.09 196.63,-329.25 215.23,-314.06"/>
<polygon fill="black" stroke="black" points="217.42,-316.79 223.1,-307.84 213.08,-311.3 217.42,-316.79"/>
<text text-anchor="middle" x="179.5" y="-401.19" font-family="Times,serif" font-size="18.00">0.7</text>
</g>
<!-- 7&#45;&gt;4 -->
<g id="edge23" class="edge">
<title>7&#45;&gt;4</title>
<path fill="none" stroke="black" d="M363.06,-497.64C367,-491.16 370.86,-484.25 374,-477.53 378.19,-468.56 381.93,-458.62 385.11,-449.1"/>
<polygon fill="black" stroke="black" points="388.51,-449.96 388.22,-439.37 381.84,-447.83 388.51,-449.96"/>
<text text-anchor="middle" x="395.5" y="-463.13" font-family="Times,serif" font-size="18.00">0.3</text>
</g>
<!-- 7&#45;&gt;7 -->
<g id="edge24" class="edge">
<title>7&#45;&gt;7</title>
<path fill="none" stroke="black" d="M396.98,-540.42C409.13,-539.39 417.98,-535.74 417.98,-529.47 417.98,-525.16 413.8,-522.09 407.24,-520.25"/>
<polygon fill="black" stroke="black" points="407.43,-516.74 396.98,-518.52 406.26,-523.64 407.43,-516.74"/>
<text text-anchor="middle" x="432.48" y="-525.07" font-family="Times,serif" font-size="18.00">0.6</text>
</g>
<!-- 9 -->
<g id="node10" class="node">
<title>9</title>
<ellipse fill="dodgerblue" stroke="dodgerblue" cx="261" cy="-405.59" rx="57.97" ry="33.88"/>
<text text-anchor="middle" x="261" y="-411.19" font-family="Times,serif" font-size="18.00">State 9</text>
<text text-anchor="middle" x="261" y="-391.19" font-family="Times,serif" font-size="18.00">group2</text>
</g>
<!-- 7&#45;&gt;9 -->
<g id="edge25" class="edge">
<title>7&#45;&gt;9</title>
<path fill="none" stroke="black" d="M320.77,-497.85C316.19,-491.18 311.41,-484.13 307,-477.53 300.25,-467.42 293.05,-456.43 286.41,-446.18"/>
<polygon fill="black" stroke="black" points="289.34,-444.28 280.97,-437.78 283.47,-448.08 289.34,-444.28"/>
<text text-anchor="middle" x="321.5" y="-463.13" font-family="Times,serif" font-size="18.00">0.1</text>
</g>
<!-- 9&#45;&gt;3 -->
<g id="edge29" class="edge">
<title>9&#45;&gt;3</title>
<path fill="none" stroke="black" d="M254.58,-439.41C251.53,-456.15 248.1,-476.86 246,-495.53 241.69,-533.75 239.4,-577.47 238.21,-609.01"/>
<polygon fill="black" stroke="black" points="234.7,-609.1 237.85,-619.22 241.7,-609.35 234.7,-609.1"/>
<text text-anchor="middle" x="260.5" y="-525.07" font-family="Times,serif" font-size="18.00">0.9</text>
</g>
<!-- 9&#45;&gt;2 -->
<g id="edge28" class="edge">
<title>9&#45;&gt;2</title>
<path fill="none" stroke="black" d="M261,-371.6C261,-357.51 261,-340.88 261,-325.83"/>
<polygon fill="black" stroke="black" points="264.5,-325.72 261,-315.72 257.5,-325.72 264.5,-325.72"/>
<text text-anchor="middle" x="275.5" y="-339.25" font-family="Times,serif" font-size="18.00">0.1</text>
</g>
</g>
</svg>
